<svg width="55" height="54" fill="none" xmlns="http://www.w3.org/2000/svg"><path d="M50.569 35.482a83.727 83.727 0 01-8.51-1.5 4.199 4.199 0 00-4.053.784c-.716.73-2.783 2.77-4.93 4.879a38.765 38.765 0 01-17.697-17.718c2.093-2.149 4.052-4.203 4.85-4.92a4.203 4.203 0 00.783-4.054 83.603 83.603 0 01-1.5-8.528 2.704 2.704 0 00-3.107-2.392H4.895a2.026 2.026 0 00-1.837 1.851C2.315 14.277 8.111 25.4 9.286 27.536v.08l.162.311a47.885 47.885 0 0017.562 17.57v0l.594.338c2.702 1.432 13.441 6.838 23.478 6.095a2.026 2.026 0 001.878-1.838V38.591a2.703 2.703 0 00-2.391-3.109z" stroke="#302313" stroke-width="4" stroke-linecap="round" stroke-linejoin="round"/></svg>