<svg width="50" height="50" fill="none" xmlns="http://www.w3.org/2000/svg"><path d="M25.1 0C11.383 0 .201 11.125.201 24.775A24.75 24.75 0 003.518 37.15L0 50l13.191-3.45a25.004 25.004 0 0011.91 3.025C38.819 49.575 50 38.45 50 24.8c0-6.625-2.588-12.85-7.286-17.525a24.672 24.672 0 00-8.072-5.4A24.771 24.771 0 0025.1 0zm.026 4.175c5.527 0 10.703 2.15 14.623 6.05a20.555 20.555 0 014.488 6.687 20.474 20.474 0 011.567 7.888c0 11.35-9.297 20.575-20.704 20.575-3.718 0-7.361-.975-10.527-2.875l-.754-.425-7.84 2.05 2.086-7.6-.502-.8a20.394 20.394 0 01-3.166-10.95c.025-11.35 9.297-20.6 20.729-20.6zm-8.845 9.15c-.402 0-1.08.15-1.658.775-.553.625-2.186 2.15-2.186 5.175 0 3.05 2.236 5.975 2.513 6.4.352.425 4.422 6.675 10.678 9.325a27.215 27.215 0 003.543 1.325c1.482.475 2.839.4 3.92.25 1.206-.175 3.668-1.5 4.195-2.95.528-1.45.528-2.675.377-2.95-.176-.25-.578-.4-1.206-.675-.628-.35-3.693-1.85-4.246-2.05-.578-.2-.93-.3-1.407.3-.402.625-1.608 2.025-1.96 2.425-.377.425-.728.475-1.331.175-.654-.325-2.664-.975-5.026-3.075-1.859-1.65-3.09-3.675-3.467-4.3-.301-.6-.025-.975.277-1.25.276-.275.678-.725.93-1.1.326-.35.426-.625.627-1.025.201-.425.1-.775-.05-1.075-.15-.275-1.407-3.375-1.935-4.6-.502-1.2-1.005-1.05-1.407-1.075-.352 0-.753-.025-1.18-.025z" fill="#302313"/></svg>